REM DIRINDEX 1\2\5,1\2\6,1\2\7,1\2\8,1\3\9,1\3\10,1\3\11,1\4\12,1\4\13,1\4\14,1\4\15,1\4\16
REM DIRNAME cjc034,folder01,folder02,folder03,folder04,folder05,folder06,folder07,folder08,folder09,folder10,folder11,folder12,folder13,folder14,folder15
TITLE ""
FILE "1200_sec03_1072_1079.mp3" MP3
  TRACK 01 AUDIO
    TITLE "0:"
    INDEX 01 00:00:00
  TRACK 02 AUDIO
    TITLE "12:cjc034_07977"
    INDEX 01 00:00:17
  TRACK 03 AUDIO
    TITLE "0:"
    INDEX 01 00:01:40
  TRACK 04 AUDIO
    TITLE "13:cjc034_07978"
    INDEX 01 00:01:73
  TRACK 05 AUDIO
    TITLE "0:"
    INDEX 01 00:03:02
  TRACK 06 AUDIO
    TITLE "14:cjc034_07979"
    INDEX 01 00:03:35
  TRACK 07 AUDIO
    TITLE "0:"
    INDEX 01 00:04:58
  TRACK 08 AUDIO
    TITLE "15:cjc034_07980"
    INDEX 01 00:05:16
  TRACK 09 AUDIO
    TITLE "0:"
    INDEX 01 00:10:21
  TRACK 10 AUDIO
    TITLE "12:cjc034_07981"
    INDEX 01 00:11:54
  TRACK 11 AUDIO
    TITLE "0:"
    INDEX 01 00:12:71
  TRACK 12 AUDIO
    TITLE "13:cjc034_07982"
    INDEX 01 00:13:32
  TRACK 13 AUDIO
    TITLE "0:"
    INDEX 01 00:14:39
  TRACK 14 AUDIO
    TITLE "14:cjc034_07983"
    INDEX 01 00:14:72
  TRACK 15 AUDIO
    TITLE "0:"
    INDEX 01 00:16:14
  TRACK 16 AUDIO
    TITLE "15:cjc034_07984"
    INDEX 01 00:16:49
  TRACK 17 AUDIO
    TITLE "0:"
    INDEX 01 00:19:24
  TRACK 18 AUDIO
    TITLE "12:cjc034_07985"
    INDEX 01 00:20:57
  TRACK 19 AUDIO
    TITLE "0:"
    INDEX 01 00:22:07
  TRACK 20 AUDIO
    TITLE "13:cjc034_07986"
    INDEX 01 00:22:44
  TRACK 21 AUDIO
    TITLE "0:"
    INDEX 01 00:27:06
  TRACK 22 AUDIO
    TITLE "14:cjc034_07987"
    INDEX 01 00:27:39
  TRACK 23 AUDIO
    TITLE "0:"
    INDEX 01 00:28:68
  TRACK 24 AUDIO
    TITLE "15:cjc034_07988"
    INDEX 01 00:29:29
  TRACK 25 AUDIO
    TITLE "0:"
    INDEX 01 00:32:74
  TRACK 26 AUDIO
    TITLE "12:cjc034_07989"
    INDEX 01 00:34:34
  TRACK 27 AUDIO
    TITLE "0:"
    INDEX 01 00:35:72
  TRACK 28 AUDIO
    TITLE "13:cjc034_07990"
    INDEX 01 00:36:29
  TRACK 29 AUDIO
    TITLE "0:"
    INDEX 01 00:39:13
  TRACK 30 AUDIO
    TITLE "14:cjc034_07991"
    INDEX 01 00:39:47
  TRACK 31 AUDIO
    TITLE "0:"
    INDEX 01 00:41:08
  TRACK 32 AUDIO
    TITLE "15:cjc034_07992"
    INDEX 01 00:41:44
  TRACK 33 AUDIO
    TITLE "0:"
    INDEX 01 00:46:72
  TRACK 34 AUDIO
    TITLE "12:cjc034_07993"
    INDEX 01 00:48:30
  TRACK 35 AUDIO
    TITLE "0:"
    INDEX 01 00:49:41
  TRACK 36 AUDIO
    TITLE "13:cjc034_07994"
    INDEX 01 00:50:01
  TRACK 37 AUDIO
    TITLE "0:"
    INDEX 01 00:52:10
  TRACK 38 AUDIO
    TITLE "14:cjc034_07995"
    INDEX 01 00:52:41
  TRACK 39 AUDIO
    TITLE "0:"
    INDEX 01 00:53:53
  TRACK 40 AUDIO
    TITLE "15:cjc034_07996"
    INDEX 01 00:54:13
  TRACK 41 AUDIO
    TITLE "0:"
    INDEX 01 00:57:31
  TRACK 42 AUDIO
    TITLE "12:cjc034_07997"
    INDEX 01 00:58:69
  TRACK 43 AUDIO
    TITLE "0:"
    INDEX 01 01:00:06
  TRACK 44 AUDIO
    TITLE "13:cjc034_07998"
    INDEX 01 01:00:39
  TRACK 45 AUDIO
    TITLE "0:"
    INDEX 01 01:05:07
  TRACK 46 AUDIO
    TITLE "14:cjc034_07999"
    INDEX 01 01:05:44
  TRACK 47 AUDIO
    TITLE "0:"
    INDEX 01 01:06:57
  TRACK 48 AUDIO
    TITLE "15:cjc034_08000"
    INDEX 01 01:07:15
  TRACK 49 AUDIO
    TITLE "0:"
    INDEX 01 01:11:25
  TRACK 50 AUDIO
    TITLE "12:cjc034_08001"
    INDEX 01 01:12:58
  TRACK 51 AUDIO
    TITLE "0:"
    INDEX 01 01:13:69
  TRACK 52 AUDIO
    TITLE "13:cjc034_08002"
    INDEX 01 01:14:27
  TRACK 53 AUDIO
    TITLE "0:"
    INDEX 01 01:15:40
  TRACK 54 AUDIO
    TITLE "14:cjc034_08003"
    INDEX 01 01:15:72
  TRACK 55 AUDIO
    TITLE "0:"
    INDEX 01 01:17:08
  TRACK 56 AUDIO
    TITLE "15:cjc034_08004"
    INDEX 01 01:17:45
  TRACK 57 AUDIO
    TITLE "0:"
    INDEX 01 01:21:74
  TRACK 58 AUDIO
    TITLE "12:cjc034_08005"
    INDEX 01 01:23:38
  TRACK 59 AUDIO
    TITLE "0:"
    INDEX 01 01:24:45
  TRACK 60 AUDIO
    TITLE "13:cjc034_08006"
    INDEX 01 01:25:04
  TRACK 61 AUDIO
    TITLE "0:"
    INDEX 01 01:29:19
  TRACK 62 AUDIO
    TITLE "14:cjc034_08007"
    INDEX 01 01:29:52
  TRACK 63 AUDIO
    TITLE "0:"
    INDEX 01 01:30:58
  TRACK 64 AUDIO
    TITLE "15:cjc034_08008"
    INDEX 01 01:31:20
  TRACK 65 AUDIO
    TITLE "0:"
    INDEX 01 01:35:02
